<svg width="58" height="60" viewBox="0 0 58 60" fill="none" xmlns="http://www.w3.org/2000/svg">
<g filter="url(#filter0_d_283_3151)">
<path d="M52.3266 29.9061L37.2893 5.11476C35.3156 1.86174 32.2964 0 29 0C25.7036 0 22.6844 1.86174 20.7107 5.10973L5.6734 29.9061C3.6742 33.1994 3.45546 36.7115 5.07568 39.5419C6.69335 42.3748 9.8524 44 13.7389 44H44.2611C48.1476 44 51.3066 42.3747 52.9243 39.5444C54.5445 36.714 54.3258 33.2019 52.3266 29.9061ZM29 12.4234C31.1722 12.4284 32.9399 14.1794 32.945 16.3229C32.945 18.469 31.1773 20.22 29.0025 20.2251C26.8304 20.22 25.0601 18.469 25.055 16.3255C25.055 14.1744 26.8253 12.4234 29 12.4234ZM33.2985 33.7101C33.2172 33.8032 31.2764 36.0197 28.0385 36.0197C27.9088 36.0197 27.7766 36.0172 27.6469 36.0096C26.3547 35.9341 25.2865 35.3681 24.6328 34.4145C23.8316 33.2447 23.7222 31.6144 24.325 29.8231L25.3577 26.7512C25.93 25.0329 25.3831 24.7586 25.0881 24.6127C25.0092 24.5725 24.8846 24.5498 24.732 24.5498C24.0936 24.5498 23.2135 24.9222 22.9312 25.0681C22.6666 25.204 22.3334 25.1335 22.1401 24.8995C21.9545 24.6605 21.9595 24.3284 22.1579 24.0995C22.2419 24.0014 24.3632 21.5962 27.8122 21.8C29.0967 21.8729 30.1649 22.4365 30.8186 23.3875C31.6224 24.5574 31.7343 26.1902 31.134 27.9865L30.1013 31.0584C29.524 32.7742 30.0759 33.0509 30.371 33.1969C30.4218 33.222 30.5287 33.2547 30.7194 33.2547C31.3655 33.2547 32.2455 32.8824 32.5304 32.739C32.8 32.5981 33.1281 32.6736 33.3189 32.9101C33.502 33.1491 33.4969 33.4812 33.2985 33.7101Z" fill="#132587"/>
</g>
<defs>
<filter id="filter0_d_283_3151" x="0" y="0" width="58" height="60" filterUnits="userSpaceOnUse" color-interpolation-filters="sRGB">
<feFlood flood-opacity="0" result="BackgroundImageFix"/>
<feColorMatrix in="SourceAlpha" type="matrix" values="0 0 0 0 0 0 0 0 0 0 0 0 0 0 0 0 0 0 127 0" result="hardAlpha"/>
<feOffset dy="12"/>
<feGaussianBlur stdDeviation="2"/>
<feComposite in2="hardAlpha" operator="out"/>
<feColorMatrix type="matrix" values="0 0 0 0 0 0 0 0 0 0 0 0 0 0 0 0 0 0 0.25 0"/>
<feBlend mode="normal" in2="BackgroundImageFix" result="effect1_dropShadow_283_3151"/>
<feBlend mode="normal" in="SourceGraphic" in2="effect1_dropShadow_283_3151" result="shape"/>
</filter>
</defs>
</svg>
