<svg width="58" height="60" viewBox="0 0 58 60" fill="none" xmlns="http://www.w3.org/2000/svg">
<g filter="url(#filter0_d_282_2767)">
<path d="M27.192 1.04193L4.27758 40.8555C4.0953 41.1742 3.99958 41.5354 4 41.9028C4.00042 42.2703 4.09696 42.6312 4.27997 42.9495C4.46299 43.2678 4.72606 43.5323 5.04291 43.7166C5.35977 43.901 5.7193 43.9987 6.08558 44H51.9144C52.2807 43.9987 52.6402 43.901 52.9571 43.7166C53.2739 43.5323 53.537 43.2678 53.72 42.9495C53.903 42.6312 53.9996 42.2703 54 41.9028C54.0004 41.5354 53.9047 41.1742 53.7224 40.8555L30.808 1.04193C30.6237 0.724884 30.3598 0.46184 30.0425 0.279022C29.7253 0.0962047 29.3659 0 29 0C28.6341 0 28.2747 0.0962047 27.9575 0.279022C27.6402 0.46184 27.3763 0.724884 27.192 1.04193Z" fill="#EFCC00"/>
<path d="M25.62 35.1529C25.62 34.568 25.7929 33.9963 26.1168 33.5099C26.4407 33.0236 26.9011 32.6446 27.4397 32.4208C27.9784 32.197 28.5711 32.1384 29.1429 32.2525C29.7147 32.3666 30.24 32.6483 30.6522 33.0618C31.0645 33.4754 31.3453 34.0023 31.459 34.576C31.5727 35.1496 31.5144 35.7442 31.2913 36.2845C31.0681 36.8249 30.6903 37.2867 30.2055 37.6117C29.7208 37.9366 29.1508 38.1101 28.5678 38.1101C28.1763 38.1268 27.7855 38.0618 27.4203 37.9191C27.0551 37.7764 26.7234 37.5591 26.4463 37.2811C26.1692 37.0031 25.9526 36.6704 25.8104 36.304C25.6681 35.9377 25.6033 35.5457 25.62 35.1529ZM26.691 30.5594L25.9443 15.7734H31.1128L30.3955 30.5594H26.691Z" fill="#353535"/>
</g>
<defs>
<filter id="filter0_d_282_2767" x="0" y="0" width="58" height="60" filterUnits="userSpaceOnUse" color-interpolation-filters="sRGB">
<feFlood flood-opacity="0" result="BackgroundImageFix"/>
<feColorMatrix in="SourceAlpha" type="matrix" values="0 0 0 0 0 0 0 0 0 0 0 0 0 0 0 0 0 0 127 0" result="hardAlpha"/>
<feOffset dy="12"/>
<feGaussianBlur stdDeviation="2"/>
<feComposite in2="hardAlpha" operator="out"/>
<feColorMatrix type="matrix" values="0 0 0 0 0 0 0 0 0 0 0 0 0 0 0 0 0 0 0.25 0"/>
<feBlend mode="normal" in2="BackgroundImageFix" result="effect1_dropShadow_282_2767"/>
<feBlend mode="normal" in="SourceGraphic" in2="effect1_dropShadow_282_2767" result="shape"/>
</filter>
</defs>
</svg>
